<?xml version="1.0"?><svg version="1.2" baseProfile="tiny-ps" viewBox="0 0 300 300" xmlns="http://www.w3.org/2000/svg" overflow="hidden"><title>multiplatecnologia-official-logo</title><defs><clipPath id="b"><rect x="0" y="0" width="300" height="300"/></clipPath></defs><rect x="0" y="0" width="300" height="300" fill="#ffffff"/><g clip-path="url(#b)"><g transform="translate(37,37) scale(0.75)"><g fill="#dcdcdc" transform="matrix(.1 0 0 -.1 0 300)"><path d="M2503 2807c-205-72-373-135-373-139s36-31 81-59l80-52-5-12c-14-38-872-1309-916-1358l-7-8-170 243c-94 134-240 350-326 481l-156 237H50V180h660l2 467 3 467 155-225c378-549 473-685 484-696l11-13 320 461c176 253 323 463 327 465l8 5V180h650v1955l35 53c20 28 40 52 46 52 5 0 47-25 92-55l82-55 3 21c2 12-3 155-12 318-21 385-27 471-35 470-3 0-174-60-378-132z"/></g><g fill="#a1a2a2" transform="matrix(.1 0 0 -.1 0 300)"><path d="M2503 2807c-205-72-373-135-373-139s36-31 81-59l80-52-5-12c-14-38-872-1309-916-1358l-7-8-170 243c-94 134-240 350-326 481l-156 237H50V180h660l2 467 3 467 155-225c378-549 473-685 484-696l11-13 320 461c176 253 323 463 327 465l8 5V645l94 215c51 118 197 453 324 744l231 528 35 54c20 30 41 54 46 54 6 0 48-25 93-55l82-55 3 21c2 12-3 155-12 318-21 385-27 471-35 470-3 0-174-60-378-132z"/></g><g fill="#5eadc8" transform="matrix(.1 0 0 -.1 0 300)"><path d="M2503 2807c-205-72-373-135-373-139s36-31 81-59l80-52-5-12c-14-38-872-1309-916-1358l-7-8-170 243c-94 134-240 350-326 481l-156 237H50V180h660l2 467 3 467 155-225c378-549 473-685 484-696l11-13 300 432c387 557 350 500 735 1101 183 285 338 521 345 523l13 5 84-55 83-56 3 21c2 12-3 155-12 318-21 385-27 471-35 470-3 0-174-60-378-132z"/></g><g fill="#00a6dd" transform="matrix(.1 0 0 -.1 0 300)"><path d="M2503 2807c-205-72-373-135-373-139s36-31 81-59l80-52-5-12c-9-24-627-948-777-1160l-149-213 2-496 3-496 320 460c176 253 328 474 338 491 29 50 641 1004 647 1009 4 3 21 26 39 53 17 26 36 47 42 47 5 0 47-25 92-55l82-55 3 21c2 12-3 155-12 318-21 385-27 471-35 470-3 0-174-60-378-132zM50 1162V180h660v945l-321 500c-176 275-325 504-330 510l-9 9v-982z"/></g><g fill="#0190c0" transform="matrix(.1 0 0 -.1 0 300)"><path d="M51 1165V185l49 140c27 77 108 320 181 540 72 220 135 404 139 408l7 8 123-283c67-156 131-299 141-318l18-35 1 240v240l-321 500c-176 275-325 504-330 510l-9 9 1-979zm1798 718c-79-120-222-329-316-464l-173-247V678l1-493 9 16c5 8 72 208 150 445 78 236 218 658 311 937 94 280 169 511 166 513-2 2-69-94-148-213z"/></g><g fill="#026e93" transform="matrix(.1 0 0 -.1 0 300)"><path d="M83 2080c6-18 255-588 471-1080l156-355v476l-306 477c-169 262-311 482-317 487l-10 10 6-15zM1367 799c-4-117-7-298-7-403V206l9 10c8 8 221 647 234 705l7 26-108 28c-59 15-112 30-118 32l-11 4-6-212z"/></g></g></g></svg>